# xmcd
#
# Track frame offsets:
#	150
#	30805
#	46033
#	71194
#	95634
#	117533
#	148640
#	171823
#	189682
#	216499
#	248866
#	277509
#	308793
#
# Disc length: 4265 seconds
#
# Revision: 1
# Processed by: cddbd v1.5.2PL0 Copyright (c) Steve Scherf et al.
# Submitted via: audiograbber 1.83.01
#
DISCID=b910a70d
DTITLE=Grateful Dead - 71-11-14 Texas Christian University, Fort Worth TX
DYEAR=1900
DGENRE=
TTITLE0=Bertha
TTITLE1=BIODTL
TTITLE2=China Cat Sunflower
TTITLE3=I Know You Rider
TTITLE4=El Paso
TTITLE5=Sugaree
TTITLE6=Jack Straw
TTITLE7=Big Railroad Blues
TTITLE8=Me and Bobby McGee
TTITLE9=Loser
TTITLE10=Playing In The Band
TTITLE11=Tennessee Jed
TTITLE12=You Win Again
EXTD=
EXTT0=
EXTT1=
EXTT2=
EXTT3=
EXTT4=
EXTT5=
EXTT6=
EXTT7=
EXTT8=
EXTT9=
EXTT10=
EXTT11=
EXTT12=
PLAYORDER=
